<svg width="195" height="194" viewBox="0 0 195 194" fill="none" xmlns="http://www.w3.org/2000/svg">
<rect x="0.5" y="0.5" width="194" height="192.28" rx="4.5" stroke="#8A38F5" stroke-dasharray="10 5"/>
<path d="M38.877 53.76C45.377 53.76 49.023 53.76 51.385 51.398C53.747 49.036 53.756 45.38 53.756 38.88C53.756 32.38 53.756 28.743 51.386 26.38C49.016 24.017 45.388 24 38.878 24C32.368 24 28.732 24 26.37 26.38C24.008 28.76 24 32.37 24 38.88C24 45.39 24 49.017 26.37 51.38C28.74 53.743 32.368 53.76 38.878 53.76H38.877Z" fill="#A62B1B"/>
<path d="M48.5471 33.5388C47.5767 31.855 46.1813 30.4569 44.5009 29.4846C42.8205 28.5124 40.9144 28.0004 38.974 28C37.0336 27.9996 35.1273 28.5109 33.4465 29.4824C31.7658 30.454 30.3697 31.8516 29.3987 33.5349C28.4286 35.219 27.918 37.1292 27.918 39.0736C27.918 41.0181 28.4286 42.9283 29.3987 44.6124L29.4622 44.7232L34.6567 53.74H38.8839C41.2376 53.791 43.5923 53.7235 45.9391 53.5375C48.2879 53.2789 49.9732 52.6969 51.281 51.3979C53.1786 49.4965 53.537 46.7838 53.6107 42.3722L48.5471 33.5388Z" fill="url(#paint0_linear_23_1369)"/>
<path d="M39 28C45.0751 28 50 32.9249 50 39C50 45.0751 45.0751 50 39 50C32.9249 50 28 45.0751 28 39C28 32.9249 32.9249 28 39 28ZM46.7285 33.8281C47.0687 33.2304 46.46 32.5404 45.8242 32.8027L39.0254 35.6084C38.6472 35.7645 38.4733 36.2028 38.6426 36.5752L39.0557 37.4805C39.1493 37.686 39.4057 37.7563 39.5908 37.627L41.8379 36.0547C42.0462 35.909 42.3362 36.0187 42.3965 36.2656L42.502 36.6973C42.5624 36.9449 42.4876 37.2063 42.3057 37.3848L38.7021 40.9121C38.5227 41.0878 38.2233 41.0317 38.1201 40.8027L36.0352 36.1768C35.9308 35.8169 35.5209 34.809 35.1562 34.8936L32.4336 35.5264C32.1008 35.6038 31.9348 35.9791 32.1016 36.2773L38.0352 46.8828C38.3099 47.3738 39.0156 47.3757 39.2939 46.8867L46.7285 33.8281Z" fill="white"/>
<path d="M67.2587 32.7891L70.4228 42.7351H70.5442L73.7147 32.7891H76.7828L72.2701 45.88H68.7033L64.1841 32.7891H67.2587ZM81.636 46.0718C80.6303 46.0718 79.7653 45.8587 79.0408 45.4326C78.3207 45.0022 77.7667 44.4056 77.3789 43.6428C76.9954 42.88 76.8036 42.0022 76.8036 41.0093C76.8036 40.0036 76.9975 39.1215 77.3853 38.363C77.7773 37.6002 78.3335 37.0057 79.0536 36.5796C79.7738 36.1492 80.6303 35.934 81.6232 35.934C82.4798 35.934 83.2298 36.0895 83.8732 36.4006C84.5167 36.7117 85.0259 37.1485 85.4009 37.711C85.7759 38.2735 85.9826 38.934 86.021 39.6925H83.4513C83.3789 39.2024 83.1871 38.8083 82.8761 38.51C82.5692 38.2074 82.1665 38.0561 81.668 38.0561C81.2461 38.0561 80.8775 38.1712 80.5621 38.4013C80.2511 38.6272 80.0082 38.9574 79.8335 39.3921C79.6587 39.8267 79.5714 40.353 79.5714 40.9709C79.5714 41.5973 79.6566 42.13 79.8271 42.5689C80.0018 43.0078 80.2468 43.3424 80.5621 43.5725C80.8775 43.8026 81.2461 43.9176 81.668 43.9176C81.979 43.9176 82.2582 43.8537 82.5053 43.7259C82.7567 43.598 82.9634 43.4127 83.1254 43.1698C83.2915 42.9226 83.4002 42.6265 83.4513 42.2813H86.021C85.9783 43.0313 85.7738 43.6918 85.4073 44.2628C85.0451 44.8296 84.5444 45.2728 83.9052 45.5924C83.266 45.912 82.5096 46.0718 81.636 46.0718ZM90.4874 40.2039V45.88H87.7644V32.7891H90.4107V37.7941H90.5257C90.7473 37.2145 91.1053 36.7607 91.5996 36.4326C92.0939 36.1002 92.714 35.934 93.4597 35.934C94.1415 35.934 94.736 36.0831 95.2431 36.3814C95.7544 36.6755 96.1507 37.0995 96.432 37.6534C96.7175 38.2032 96.8581 38.8615 96.8539 39.6286V45.88H94.1309V40.1144C94.1351 39.5093 93.9817 39.0384 93.6706 38.7017C93.3638 38.3651 92.9334 38.1968 92.3794 38.1968C92.0087 38.1968 91.6806 38.2756 91.3951 38.4333C91.1138 38.5909 90.8922 38.8211 90.7303 39.1236C90.5726 39.4219 90.4917 39.782 90.4874 40.2039ZM101.797 46.0654C101.17 46.0654 100.612 45.9567 100.122 45.7394C99.6317 45.5178 99.244 45.1918 98.9585 44.7614C98.6772 44.3267 98.5366 43.7855 98.5366 43.1378C98.5366 42.5924 98.6367 42.1343 98.837 41.7635C99.0373 41.3928 99.31 41.0945 99.6552 40.8686C100 40.6428 100.392 40.4723 100.831 40.3573C101.275 40.2422 101.739 40.1613 102.225 40.1144C102.796 40.0547 103.256 39.9993 103.605 39.9482C103.955 39.8928 104.208 39.8118 104.366 39.7053C104.524 39.5988 104.603 39.4411 104.603 39.2323V39.1939C104.603 38.7891 104.475 38.4759 104.219 38.2543C103.968 38.0327 103.61 37.9219 103.145 37.9219C102.655 37.9219 102.265 38.0306 101.975 38.2479C101.686 38.461 101.494 38.7294 101.4 39.0533L98.8817 38.8488C99.0096 38.2522 99.261 37.7365 99.636 37.3019C100.011 36.863 100.495 36.5263 101.087 36.2919C101.684 36.0533 102.374 35.934 103.158 35.934C103.703 35.934 104.225 35.9979 104.724 36.1257C105.227 36.2536 105.672 36.4517 106.06 36.7202C106.452 36.9887 106.761 37.3338 106.987 37.7557C107.213 38.1733 107.326 38.674 107.326 39.2578V45.88H104.743V44.5185H104.667C104.509 44.8253 104.298 45.0959 104.034 45.3303C103.77 45.5604 103.452 45.7415 103.081 45.8736C102.711 46.0015 102.282 46.0654 101.797 46.0654ZM102.576 44.1861C102.977 44.1861 103.331 44.1073 103.637 43.9496C103.944 43.7877 104.185 43.5703 104.36 43.2976C104.534 43.0249 104.622 42.7159 104.622 42.3708V41.3289C104.537 41.3843 104.419 41.4354 104.27 41.4823C104.125 41.5249 103.961 41.5654 103.778 41.6037C103.595 41.6378 103.412 41.6698 103.228 41.6996C103.045 41.7252 102.879 41.7486 102.73 41.7699C102.41 41.8168 102.131 41.8914 101.892 41.9936C101.654 42.0959 101.468 42.2344 101.336 42.4091C101.204 42.5796 101.138 42.7926 101.138 43.0483C101.138 43.4191 101.272 43.7024 101.541 43.8985C101.814 44.0902 102.159 44.1861 102.576 44.1861ZM109.438 45.88V36.0618H112.161V45.88H109.438ZM110.806 34.7962C110.401 34.7962 110.054 34.662 109.764 34.3935C109.479 34.1208 109.336 33.7948 109.336 33.4155C109.336 33.0405 109.479 32.7188 109.764 32.4503C110.054 32.1776 110.401 32.0412 110.806 32.0412C111.211 32.0412 111.556 32.1776 111.842 32.4503C112.131 32.7188 112.276 33.0405 112.276 33.4155C112.276 33.7948 112.131 34.1208 111.842 34.3935C111.556 34.662 111.211 34.7962 110.806 34.7962ZM117.066 40.2039V45.88H114.343V36.0618H116.938V37.7941H117.053C117.27 37.223 117.634 36.7713 118.146 36.439C118.657 36.1023 119.277 35.934 120.006 35.934C120.688 35.934 121.282 36.0831 121.789 36.3814C122.296 36.6797 122.691 37.1059 122.972 37.6598C123.253 38.2095 123.394 38.8658 123.394 39.6286V45.88H120.671V40.1144C120.675 39.5135 120.521 39.0448 120.21 38.7081C119.899 38.3672 119.471 38.1968 118.926 38.1968C118.559 38.1968 118.235 38.2756 117.954 38.4333C117.677 38.5909 117.46 38.8211 117.302 39.1236C117.149 39.4219 117.07 39.782 117.066 40.2039ZM125.591 45.88V32.7891H130.756C131.749 32.7891 132.594 32.9787 133.293 33.358C133.992 33.733 134.525 34.255 134.891 34.924C135.262 35.5888 135.447 36.3559 135.447 37.2252C135.447 38.0945 135.26 38.8615 134.885 39.5263C134.51 40.1911 133.967 40.7088 133.255 41.0796C132.548 41.4503 131.691 41.6357 130.685 41.6357H127.393V39.4176H130.238C130.771 39.4176 131.21 39.326 131.555 39.1428C131.904 38.9553 132.164 38.6975 132.335 38.3694C132.509 38.037 132.597 37.6556 132.597 37.2252C132.597 36.7905 132.509 36.4113 132.335 36.0874C132.164 35.7593 131.904 35.5057 131.555 35.3267C131.205 35.1435 130.762 35.0519 130.225 35.0519H128.359V45.88H125.591ZM139.73 46.0654C139.104 46.0654 138.545 45.9567 138.055 45.7394C137.565 45.5178 137.178 45.1918 136.892 44.7614C136.611 44.3267 136.47 43.7855 136.47 43.1378C136.47 42.5924 136.57 42.1343 136.771 41.7635C136.971 41.3928 137.244 41.0945 137.589 40.8686C137.934 40.6428 138.326 40.4723 138.765 40.3573C139.208 40.2422 139.673 40.1613 140.158 40.1144C140.729 40.0547 141.19 39.9993 141.539 39.9482C141.888 39.8928 142.142 39.8118 142.3 39.7053C142.457 39.5988 142.536 39.4411 142.536 39.2323V39.1939C142.536 38.7891 142.408 38.4759 142.153 38.2543C141.901 38.0327 141.543 37.9219 141.079 37.9219C140.589 37.9219 140.199 38.0306 139.909 38.2479C139.619 38.461 139.428 38.7294 139.334 39.0533L136.815 38.8488C136.943 38.2522 137.195 37.7365 137.57 37.3019C137.945 36.863 138.428 36.5263 139.021 36.2919C139.617 36.0533 140.308 35.934 141.092 35.934C141.637 35.934 142.159 35.9979 142.658 36.1257C143.161 36.2536 143.606 36.4517 143.994 36.7202C144.386 36.9887 144.695 37.3338 144.92 37.7557C145.146 38.1733 145.259 38.674 145.259 39.2578V45.88H142.677V44.5185H142.6C142.442 44.8253 142.232 45.0959 141.967 45.3303C141.703 45.5604 141.386 45.7415 141.015 45.8736C140.644 46.0015 140.216 46.0654 139.73 46.0654ZM140.51 44.1861C140.911 44.1861 141.264 44.1073 141.571 43.9496C141.878 43.7877 142.119 43.5703 142.293 43.2976C142.468 43.0249 142.555 42.7159 142.555 42.3708V41.3289C142.47 41.3843 142.353 41.4354 142.204 41.4823C142.059 41.5249 141.895 41.5654 141.712 41.6037C141.528 41.6378 141.345 41.6698 141.162 41.6996C140.979 41.7252 140.812 41.7486 140.663 41.7699C140.344 41.8168 140.065 41.8914 139.826 41.9936C139.587 42.0959 139.402 42.2344 139.27 42.4091C139.138 42.5796 139.072 42.7926 139.072 43.0483C139.072 43.4191 139.206 43.7024 139.474 43.8985C139.747 44.0902 140.092 44.1861 140.51 44.1861ZM148.701 49.5618C148.356 49.5618 148.032 49.5341 147.73 49.4787C147.431 49.4276 147.184 49.3615 146.988 49.2806L147.602 47.2479C147.922 47.3459 148.209 47.3992 148.465 47.4077C148.725 47.4162 148.949 47.3566 149.136 47.2287C149.328 47.1009 149.483 46.8836 149.603 46.5767L149.762 46.1613L146.24 36.0618H149.104L151.137 43.2721H151.239L153.291 36.0618H156.174L152.358 46.9411C152.174 47.4695 151.925 47.9297 151.61 48.3218C151.299 48.7181 150.904 49.0228 150.427 49.2358C149.95 49.4532 149.375 49.5618 148.701 49.5618Z" fill="black"/>
<path d="M38.877 169.28C45.377 169.28 49.023 169.28 51.385 166.918C53.747 164.556 53.756 160.9 53.756 154.4C53.756 147.9 53.756 144.263 51.386 141.9C49.016 139.537 45.388 139.52 38.878 139.52C32.368 139.52 28.732 139.52 26.37 141.9C24.008 144.28 24 147.89 24 154.4C24 160.91 24 164.537 26.37 166.9C28.74 169.263 32.368 169.28 38.878 169.28H38.877Z" fill="#A62B1B"/>
<path d="M48.508 148.903C47.5301 147.207 46.1239 145.798 44.4306 144.818C42.7373 143.838 40.8165 143.322 38.8612 143.322C36.906 143.322 34.985 143.837 33.2913 144.816C31.5976 145.795 30.1908 147.203 29.2123 148.899C28.2348 150.596 27.7202 152.521 27.7202 154.481C27.7202 156.44 28.2348 158.365 29.2123 160.062L29.2763 160.174L34.5107 169.26H38.7705C41.1422 169.311 43.515 169.243 45.8799 169.056C48.2467 168.795 49.945 168.209 51.2629 166.9C53.175 164.984 53.5362 162.25 53.6105 157.805L48.508 148.903Z" fill="url(#paint1_linear_23_1369)"/>
<path d="M46.6698 146.532C45.1138 144.967 43.1295 143.901 40.9681 143.467C38.8066 143.033 36.5653 143.252 34.528 144.095C32.4907 144.939 30.749 146.369 29.5235 148.205C28.2979 150.041 27.6437 152.2 27.6436 154.409C27.6437 156.618 28.2979 158.777 29.5235 160.613C30.749 162.449 32.4907 163.879 34.528 164.723C36.5653 165.566 38.8066 165.785 40.9681 165.351C43.1295 164.917 45.1138 163.851 46.6698 162.286C48.7498 160.194 49.9176 157.362 49.9176 154.409C49.9176 151.456 48.7498 148.624 46.6698 146.532ZM46.0012 151.656L40.4974 161.244C40.3521 161.527 40.1366 161.768 39.8717 161.944C39.6068 162.12 39.3013 162.224 38.9845 162.248C38.6342 162.286 38.2805 162.218 37.9694 162.052C37.6583 161.886 37.4041 161.63 37.24 161.318L33.7871 155.328L31.6813 151.608C31.5221 151.333 31.436 151.021 31.4312 150.703C31.4265 150.385 31.5032 150.071 31.6541 149.791C31.8049 149.511 32.0249 149.275 32.293 149.105C32.5611 148.934 32.8683 148.835 33.1853 148.818C33.8839 148.764 34.5525 149.118 34.8838 149.748L36.4247 152.426L37.5384 154.351C37.7796 154.791 38.1304 155.161 38.5565 155.425C38.9827 155.689 39.4698 155.838 39.9705 155.858C41.5473 155.952 42.9185 154.79 43.0891 153.218V152.911C43.0921 152.431 42.9843 151.957 42.7738 151.525C42.6166 151.204 42.5552 150.844 42.5969 150.489C42.6386 150.134 42.7815 149.798 43.0087 149.522C43.2359 149.246 43.5376 149.042 43.8777 148.934C44.2178 148.825 44.5819 148.817 44.9264 148.911C45.2707 149.005 45.5809 149.196 45.8196 149.461C46.0584 149.727 46.2157 150.056 46.2727 150.409C46.3265 150.843 46.2307 151.282 46.0032 151.655L46.0012 151.656Z" fill="white"/>
<path d="M67.2587 148.309L70.4228 158.255H70.5442L73.7147 148.309H76.7828L72.2701 161.4H68.7033L64.1841 148.309H67.2587ZM81.636 161.592C80.6303 161.592 79.7653 161.379 79.0408 160.953C78.3207 160.522 77.7667 159.926 77.3789 159.163C76.9954 158.4 76.8036 157.522 76.8036 156.529C76.8036 155.524 76.9975 154.641 77.3853 153.883C77.7773 153.12 78.3335 152.526 79.0536 152.1C79.7738 151.669 80.6303 151.454 81.6232 151.454C82.4798 151.454 83.2298 151.61 83.8732 151.921C84.5167 152.232 85.0259 152.668 85.4009 153.231C85.7759 153.793 85.9826 154.454 86.021 155.213H83.4513C83.3789 154.722 83.1871 154.328 82.8761 154.03C82.5692 153.727 82.1665 153.576 81.668 153.576C81.2461 153.576 80.8775 153.691 80.5621 153.921C80.2511 154.147 80.0082 154.477 79.8335 154.912C79.6587 155.347 79.5714 155.873 79.5714 156.491C79.5714 157.117 79.6566 157.65 79.8271 158.089C80.0018 158.528 80.2468 158.862 80.5621 159.092C80.8775 159.323 81.2461 159.438 81.668 159.438C81.979 159.438 82.2582 159.374 82.5053 159.246C82.7567 159.118 82.9634 158.933 83.1254 158.69C83.2915 158.443 83.4002 158.146 83.4513 157.801H86.021C85.9783 158.551 85.7738 159.212 85.4073 159.783C85.0451 160.35 84.5444 160.793 83.9052 161.112C83.266 161.432 82.5096 161.592 81.636 161.592ZM90.4874 155.724V161.4H87.7644V148.309H90.4107V153.314H90.5257C90.7473 152.735 91.1053 152.281 91.5996 151.953C92.0939 151.62 92.714 151.454 93.4597 151.454C94.1415 151.454 94.736 151.603 95.2431 151.901C95.7544 152.195 96.1507 152.619 96.432 153.173C96.7175 153.723 96.8581 154.382 96.8539 155.149V161.4H94.1309V155.634C94.1351 155.029 93.9817 154.558 93.6706 154.222C93.3638 153.885 92.9334 153.717 92.3794 153.717C92.0087 153.717 91.6806 153.796 91.3951 153.953C91.1138 154.111 90.8922 154.341 90.7303 154.644C90.5726 154.942 90.4917 155.302 90.4874 155.724ZM101.797 161.585C101.17 161.585 100.612 161.477 100.122 161.259C99.6317 161.038 99.244 160.712 98.9585 160.281C98.6772 159.847 98.5366 159.306 98.5366 158.658C98.5366 158.112 98.6367 157.654 98.837 157.284C99.0373 156.913 99.31 156.614 99.6552 156.389C100 156.163 100.392 155.992 100.831 155.877C101.275 155.762 101.739 155.681 102.225 155.634C102.796 155.575 103.256 155.519 103.605 155.468C103.955 155.413 104.208 155.332 104.366 155.225C104.524 155.119 104.603 154.961 104.603 154.752V154.714C104.603 154.309 104.475 153.996 104.219 153.774C103.968 153.553 103.61 153.442 103.145 153.442C102.655 153.442 102.265 153.551 101.975 153.768C101.686 153.981 101.494 154.249 101.4 154.573L98.8817 154.369C99.0096 153.772 99.261 153.257 99.636 152.822C100.011 152.383 100.495 152.046 101.087 151.812C101.684 151.573 102.374 151.454 103.158 151.454C103.703 151.454 104.225 151.518 104.724 151.646C105.227 151.774 105.672 151.972 106.06 152.24C106.452 152.509 106.761 152.854 106.987 153.276C107.213 153.693 107.326 154.194 107.326 154.778V161.4H104.743V160.038H104.667C104.509 160.345 104.298 160.616 104.034 160.85C103.77 161.08 103.452 161.262 103.081 161.394C102.711 161.521 102.282 161.585 101.797 161.585ZM102.576 159.706C102.977 159.706 103.331 159.627 103.637 159.47C103.944 159.308 104.185 159.09 104.36 158.818C104.534 158.545 104.622 158.236 104.622 157.891V156.849C104.537 156.904 104.419 156.955 104.27 157.002C104.125 157.045 103.961 157.085 103.778 157.124C103.595 157.158 103.412 157.19 103.228 157.22C103.045 157.245 102.879 157.269 102.73 157.29C102.41 157.337 102.131 157.411 101.892 157.514C101.654 157.616 101.468 157.754 101.336 157.929C101.204 158.1 101.138 158.313 101.138 158.568C101.138 158.939 101.272 159.222 101.541 159.418C101.814 159.61 102.159 159.706 102.576 159.706ZM109.438 161.4V151.582H112.161V161.4H109.438ZM110.806 150.316C110.401 150.316 110.054 150.182 109.764 149.913C109.479 149.641 109.336 149.315 109.336 148.936C109.336 148.561 109.479 148.239 109.764 147.97C110.054 147.698 110.401 147.561 110.806 147.561C111.211 147.561 111.556 147.698 111.842 147.97C112.131 148.239 112.276 148.561 112.276 148.936C112.276 149.315 112.131 149.641 111.842 149.913C111.556 150.182 111.211 150.316 110.806 150.316ZM117.066 155.724V161.4H114.343V151.582H116.938V153.314H117.053C117.27 152.743 117.634 152.291 118.146 151.959C118.657 151.622 119.277 151.454 120.006 151.454C120.688 151.454 121.282 151.603 121.789 151.901C122.296 152.2 122.691 152.626 122.972 153.18C123.253 153.73 123.394 154.386 123.394 155.149V161.4H120.671V155.634C120.675 155.034 120.521 154.565 120.21 154.228C119.899 153.887 119.471 153.717 118.926 153.717C118.559 153.717 118.235 153.796 117.954 153.953C117.677 154.111 117.46 154.341 117.302 154.644C117.149 154.942 117.07 155.302 117.066 155.724ZM125.591 161.4V148.309H130.756C131.749 148.309 132.594 148.499 133.293 148.878C133.992 149.253 134.525 149.775 134.891 150.444C135.262 151.109 135.447 151.876 135.447 152.745C135.447 153.614 135.26 154.382 134.885 155.046C134.51 155.711 133.967 156.229 133.255 156.6C132.548 156.97 131.691 157.156 130.685 157.156H127.393V154.938H130.238C130.771 154.938 131.21 154.846 131.555 154.663C131.904 154.475 132.164 154.217 132.335 153.889C132.509 153.557 132.597 153.176 132.597 152.745C132.597 152.311 132.509 151.931 132.335 151.607C132.164 151.279 131.904 151.026 131.555 150.847C131.205 150.663 130.762 150.572 130.225 150.572H128.359V161.4H125.591ZM139.73 161.585C139.104 161.585 138.545 161.477 138.055 161.259C137.565 161.038 137.178 160.712 136.892 160.281C136.611 159.847 136.47 159.306 136.47 158.658C136.47 158.112 136.57 157.654 136.771 157.284C136.971 156.913 137.244 156.614 137.589 156.389C137.934 156.163 138.326 155.992 138.765 155.877C139.208 155.762 139.673 155.681 140.158 155.634C140.729 155.575 141.19 155.519 141.539 155.468C141.888 155.413 142.142 155.332 142.3 155.225C142.457 155.119 142.536 154.961 142.536 154.752V154.714C142.536 154.309 142.408 153.996 142.153 153.774C141.901 153.553 141.543 153.442 141.079 153.442C140.589 153.442 140.199 153.551 139.909 153.768C139.619 153.981 139.428 154.249 139.334 154.573L136.815 154.369C136.943 153.772 137.195 153.257 137.57 152.822C137.945 152.383 138.428 152.046 139.021 151.812C139.617 151.573 140.308 151.454 141.092 151.454C141.637 151.454 142.159 151.518 142.658 151.646C143.161 151.774 143.606 151.972 143.994 152.24C144.386 152.509 144.695 152.854 144.92 153.276C145.146 153.693 145.259 154.194 145.259 154.778V161.4H142.677V160.038H142.6C142.442 160.345 142.232 160.616 141.967 160.85C141.703 161.08 141.386 161.262 141.015 161.394C140.644 161.521 140.216 161.585 139.73 161.585ZM140.51 159.706C140.911 159.706 141.264 159.627 141.571 159.47C141.878 159.308 142.119 159.09 142.293 158.818C142.468 158.545 142.555 158.236 142.555 157.891V156.849C142.47 156.904 142.353 156.955 142.204 157.002C142.059 157.045 141.895 157.085 141.712 157.124C141.528 157.158 141.345 157.19 141.162 157.22C140.979 157.245 140.812 157.269 140.663 157.29C140.344 157.337 140.065 157.411 139.826 157.514C139.587 157.616 139.402 157.754 139.27 157.929C139.138 158.1 139.072 158.313 139.072 158.568C139.072 158.939 139.206 159.222 139.474 159.418C139.747 159.61 140.092 159.706 140.51 159.706ZM148.701 165.082C148.356 165.082 148.032 165.054 147.73 164.999C147.431 164.948 147.184 164.882 146.988 164.801L147.602 162.768C147.922 162.866 148.209 162.919 148.465 162.928C148.725 162.936 148.949 162.877 149.136 162.749C149.328 162.621 149.483 162.404 149.603 162.097L149.762 161.681L146.24 151.582H149.104L151.137 158.792H151.239L153.291 151.582H156.174L152.358 162.461C152.174 162.989 151.925 163.45 151.61 163.842C151.299 164.238 150.904 164.543 150.427 164.756C149.95 164.973 149.375 165.082 148.701 165.082Z" fill="black"/>
<path d="M38.877 111.52C45.377 111.52 49.023 111.52 51.385 109.158C53.747 106.796 53.756 103.14 53.756 96.64C53.756 90.14 53.756 86.503 51.386 84.14C49.016 81.777 45.388 81.76 38.878 81.76C32.368 81.76 28.732 81.76 26.37 84.14C24.008 86.52 24 90.13 24 96.64C24 103.15 24 106.777 26.37 109.14C28.74 111.503 32.368 111.52 38.878 111.52H38.877Z" fill="#A62B1B"/>
<path d="M48.5471 91.2988C47.5767 89.615 46.1813 88.2169 44.5009 87.2446C42.8205 86.2724 40.9144 85.7604 38.974 85.76C37.0336 85.7596 35.1273 86.2709 33.4465 87.2424C31.7658 88.214 30.3697 89.6116 29.3987 91.2949C28.4286 92.979 27.918 94.8892 27.918 96.8336C27.918 98.7781 28.4286 100.688 29.3987 102.372L29.4622 102.483L34.6567 111.5H38.8839C41.2376 111.551 43.5923 111.483 45.9391 111.297C48.2879 111.039 49.9732 110.457 51.281 109.158C53.1786 107.256 53.537 104.544 53.6107 100.132L48.5471 91.2988Z" fill="url(#paint2_linear_23_1369)"/>
<path d="M39 85.76C45.0751 85.76 50 90.6849 50 96.76C50 102.835 45.0751 107.76 39 107.76C32.9249 107.76 28 102.835 28 96.76C28 90.6849 32.9249 85.76 39 85.76ZM46.7285 91.5881C47.0687 90.9904 46.46 90.3004 45.8242 90.5627L39.0254 93.3684C38.6472 93.5245 38.4733 93.9628 38.6426 94.3352L39.0557 95.2405C39.1493 95.446 39.4057 95.5163 39.5908 95.387L41.8379 93.8147C42.0462 93.669 42.3362 93.7787 42.3965 94.0256L42.502 94.4573C42.5624 94.7049 42.4876 94.9663 42.3057 95.1448L38.7021 98.6721C38.5227 98.8478 38.2233 98.7917 38.1201 98.5627L36.0352 93.9368C35.9308 93.5769 35.5209 92.569 35.1562 92.6536L32.4336 93.2864C32.1008 93.3638 31.9348 93.7391 32.1016 94.0373L38.0352 104.643C38.3099 105.134 39.0156 105.136 39.2939 104.647L46.7285 91.5881Z" fill="white"/>
<path d="M67.2587 90.5491L70.4228 100.495H70.5442L73.7147 90.5491H76.7828L72.2701 103.64H68.7033L64.1841 90.5491H67.2587ZM81.636 103.832C80.6303 103.832 79.7653 103.619 79.0408 103.193C78.3207 102.762 77.7667 102.166 77.3789 101.403C76.9954 100.64 76.8036 99.7622 76.8036 98.7693C76.8036 97.7636 76.9975 96.8815 77.3853 96.123C77.7773 95.3602 78.3335 94.7657 79.0536 94.3396C79.7738 93.9092 80.6303 93.694 81.6232 93.694C82.4798 93.694 83.2298 93.8495 83.8732 94.1606C84.5167 94.4717 85.0259 94.9085 85.4009 95.471C85.7759 96.0335 85.9826 96.694 86.021 97.4525H83.4513C83.3789 96.9624 83.1871 96.5683 82.8761 96.27C82.5692 95.9674 82.1665 95.8161 81.668 95.8161C81.2461 95.8161 80.8775 95.9312 80.5621 96.1613C80.2511 96.3872 80.0082 96.7174 79.8335 97.1521C79.6587 97.5867 79.5714 98.113 79.5714 98.7309C79.5714 99.3573 79.6566 99.89 79.8271 100.329C80.0018 100.768 80.2468 101.102 80.5621 101.332C80.8775 101.563 81.2461 101.678 81.668 101.678C81.979 101.678 82.2582 101.614 82.5053 101.486C82.7567 101.358 82.9634 101.173 83.1254 100.93C83.2915 100.683 83.4002 100.386 83.4513 100.041H86.021C85.9783 100.791 85.7738 101.452 85.4073 102.023C85.0451 102.59 84.5444 103.033 83.9052 103.352C83.266 103.672 82.5096 103.832 81.636 103.832ZM90.4874 97.9639V103.64H87.7644V90.5491H90.4107V95.5541H90.5257C90.7473 94.9745 91.1053 94.5207 91.5996 94.1926C92.0939 93.8602 92.714 93.694 93.4597 93.694C94.1415 93.694 94.736 93.8431 95.2431 94.1414C95.7544 94.4355 96.1507 94.8595 96.432 95.4134C96.7175 95.9632 96.8581 96.6215 96.8539 97.3886V103.64H94.1309V97.8744C94.1351 97.2693 93.9817 96.7984 93.6706 96.4617C93.3638 96.1251 92.9334 95.9568 92.3794 95.9568C92.0087 95.9568 91.6806 96.0356 91.3951 96.1933C91.1138 96.3509 90.8922 96.5811 90.7303 96.8836C90.5726 97.1819 90.4917 97.542 90.4874 97.9639ZM101.797 103.825C101.17 103.825 100.612 103.717 100.122 103.499C99.6317 103.278 99.244 102.952 98.9585 102.521C98.6772 102.087 98.5366 101.546 98.5366 100.898C98.5366 100.352 98.6367 99.8943 98.837 99.5235C99.0373 99.1528 99.31 98.8545 99.6552 98.6286C100 98.4028 100.392 98.2323 100.831 98.1173C101.275 98.0022 101.739 97.9213 102.225 97.8744C102.796 97.8147 103.256 97.7593 103.605 97.7082C103.955 97.6528 104.208 97.5718 104.366 97.4653C104.524 97.3588 104.603 97.2011 104.603 96.9923V96.9539C104.603 96.5491 104.475 96.2359 104.219 96.0143C103.968 95.7927 103.61 95.6819 103.145 95.6819C102.655 95.6819 102.265 95.7906 101.975 96.0079C101.686 96.221 101.494 96.4894 101.4 96.8133L98.8817 96.6088C99.0096 96.0122 99.261 95.4965 99.636 95.0619C100.011 94.623 100.495 94.2863 101.087 94.0519C101.684 93.8133 102.374 93.694 103.158 93.694C103.703 93.694 104.225 93.7579 104.724 93.8857C105.227 94.0136 105.672 94.2117 106.06 94.4802C106.452 94.7487 106.761 95.0938 106.987 95.5157C107.213 95.9333 107.326 96.434 107.326 97.0178V103.64H104.743V102.278H104.667C104.509 102.585 104.298 102.856 104.034 103.09C103.77 103.32 103.452 103.502 103.081 103.634C102.711 103.761 102.282 103.825 101.797 103.825ZM102.576 101.946C102.977 101.946 103.331 101.867 103.637 101.71C103.944 101.548 104.185 101.33 104.36 101.058C104.534 100.785 104.622 100.476 104.622 100.131V99.0889C104.537 99.1443 104.419 99.1954 104.27 99.2423C104.125 99.2849 103.961 99.3254 103.778 99.3637C103.595 99.3978 103.412 99.4298 103.228 99.4596C103.045 99.4852 102.879 99.5086 102.73 99.5299C102.41 99.5768 102.131 99.6514 101.892 99.7536C101.654 99.8559 101.468 99.9944 101.336 100.169C101.204 100.34 101.138 100.553 101.138 100.808C101.138 101.179 101.272 101.462 101.541 101.658C101.814 101.85 102.159 101.946 102.576 101.946ZM109.438 103.64V93.8218H112.161V103.64H109.438ZM110.806 92.5562C110.401 92.5562 110.054 92.422 109.764 92.1535C109.479 91.8808 109.336 91.5548 109.336 91.1755C109.336 90.8005 109.479 90.4788 109.764 90.2103C110.054 89.9376 110.401 89.8012 110.806 89.8012C111.211 89.8012 111.556 89.9376 111.842 90.2103C112.131 90.4788 112.276 90.8005 112.276 91.1755C112.276 91.5548 112.131 91.8808 111.842 92.1535C111.556 92.422 111.211 92.5562 110.806 92.5562ZM117.066 97.9639V103.64H114.343V93.8218H116.938V95.5541H117.053C117.27 94.983 117.634 94.5313 118.146 94.199C118.657 93.8623 119.277 93.694 120.006 93.694C120.688 93.694 121.282 93.8431 121.789 94.1414C122.296 94.4397 122.691 94.8659 122.972 95.4198C123.253 95.9695 123.394 96.6258 123.394 97.3886V103.64H120.671V97.8744C120.675 97.2735 120.521 96.8048 120.21 96.4681C119.899 96.1272 119.471 95.9568 118.926 95.9568C118.559 95.9568 118.235 96.0356 117.954 96.1933C117.677 96.3509 117.46 96.5811 117.302 96.8836C117.149 97.1819 117.07 97.542 117.066 97.9639ZM125.591 103.64V90.5491H130.756C131.749 90.5491 132.594 90.7387 133.293 91.118C133.992 91.493 134.525 92.015 134.891 92.684C135.262 93.3488 135.447 94.1159 135.447 94.9852C135.447 95.8545 135.26 96.6215 134.885 97.2863C134.51 97.9511 133.967 98.4688 133.255 98.8396C132.548 99.2103 131.691 99.3957 130.685 99.3957H127.393V97.1776H130.238C130.771 97.1776 131.21 97.086 131.555 96.9028C131.904 96.7153 132.164 96.4575 132.335 96.1293C132.509 95.797 132.597 95.4156 132.597 94.9852C132.597 94.5505 132.509 94.1713 132.335 93.8474C132.164 93.5193 131.904 93.2657 131.555 93.0867C131.205 92.9035 130.762 92.8119 130.225 92.8119H128.359V103.64H125.591ZM139.73 103.825C139.104 103.825 138.545 103.717 138.055 103.499C137.565 103.278 137.178 102.952 136.892 102.521C136.611 102.087 136.47 101.546 136.47 100.898C136.47 100.352 136.57 99.8943 136.771 99.5235C136.971 99.1528 137.244 98.8545 137.589 98.6286C137.934 98.4028 138.326 98.2323 138.765 98.1173C139.208 98.0022 139.673 97.9213 140.158 97.8744C140.729 97.8147 141.19 97.7593 141.539 97.7082C141.888 97.6528 142.142 97.5718 142.3 97.4653C142.457 97.3588 142.536 97.2011 142.536 96.9923V96.9539C142.536 96.5491 142.408 96.2359 142.153 96.0143C141.901 95.7927 141.543 95.6819 141.079 95.6819C140.589 95.6819 140.199 95.7906 139.909 96.0079C139.619 96.221 139.428 96.4894 139.334 96.8133L136.815 96.6088C136.943 96.0122 137.195 95.4965 137.57 95.0619C137.945 94.623 138.428 94.2863 139.021 94.0519C139.617 93.8133 140.308 93.694 141.092 93.694C141.637 93.694 142.159 93.7579 142.658 93.8857C143.161 94.0136 143.606 94.2117 143.994 94.4802C144.386 94.7487 144.695 95.0938 144.92 95.5157C145.146 95.9333 145.259 96.434 145.259 97.0178V103.64H142.677V102.278H142.6C142.442 102.585 142.232 102.856 141.967 103.09C141.703 103.32 141.386 103.502 141.015 103.634C140.644 103.761 140.216 103.825 139.73 103.825ZM140.51 101.946C140.911 101.946 141.264 101.867 141.571 101.71C141.878 101.548 142.119 101.33 142.293 101.058C142.468 100.785 142.555 100.476 142.555 100.131V99.0889C142.47 99.1443 142.353 99.1954 142.204 99.2423C142.059 99.2849 141.895 99.3254 141.712 99.3637C141.528 99.3978 141.345 99.4298 141.162 99.4596C140.979 99.4852 140.812 99.5086 140.663 99.5299C140.344 99.5768 140.065 99.6514 139.826 99.7536C139.587 99.8559 139.402 99.9944 139.27 100.169C139.138 100.34 139.072 100.553 139.072 100.808C139.072 101.179 139.206 101.462 139.474 101.658C139.747 101.85 140.092 101.946 140.51 101.946ZM148.701 107.322C148.356 107.322 148.032 107.294 147.73 107.239C147.431 107.188 147.184 107.122 146.988 107.041L147.602 105.008C147.922 105.106 148.209 105.159 148.465 105.168C148.725 105.176 148.949 105.117 149.136 104.989C149.328 104.861 149.483 104.644 149.603 104.337L149.762 103.921L146.24 93.8218H149.104L151.137 101.032H151.239L153.291 93.8218H156.174L152.358 104.701C152.174 105.229 151.925 105.69 151.61 106.082C151.299 106.478 150.904 106.783 150.427 106.996C149.95 107.213 149.375 107.322 148.701 107.322Z" fill="white"/>
<defs>
<linearGradient id="paint0_linear_23_1369" x1="33.4149" y1="29.4328" x2="47.5314" y2="53.8272" gradientUnits="userSpaceOnUse">
<stop stop-opacity="0.2"/>
<stop offset="0.79" stop-opacity="0.05"/>
</linearGradient>
<linearGradient id="paint1_linear_23_1369" x1="33.2594" y1="144.766" x2="47.4844" y2="169.348" gradientUnits="userSpaceOnUse">
<stop stop-opacity="0.2"/>
<stop offset="0.79" stop-opacity="0.05"/>
</linearGradient>
<linearGradient id="paint2_linear_23_1369" x1="33.4149" y1="87.1928" x2="47.5314" y2="111.587" gradientUnits="userSpaceOnUse">
<stop stop-opacity="0.2"/>
<stop offset="0.79" stop-opacity="0.05"/>
</linearGradient>
</defs>
</svg>
